<svg version="1.1" id="Layer_1" xmlns="http://www.w3.org/2000/svg" xmlns:xlink="http://www.w3.org/1999/xlink" x="0px" y="0px"
	 width="100%" viewBox="0 0 1890 1063" enable-background="new 0 0 1890 1063" xml:space="preserve">
<path fill="#FFFFFF" opacity="1.000000" stroke="none" 
	d="
M414.000000,1064.000000 
	C276.401520,1064.000000 138.803040,1064.000000 1.000000,1064.000000 
	C1.000000,924.637329 1.000000,785.274597 1.378702,645.662170 
	C3.163341,658.466248 4.548792,671.522339 5.979786,684.573364 
	C8.424628,706.871033 13.891229,728.533264 20.509390,749.872131 
	C29.836241,779.944519 42.802032,808.412170 60.351742,834.641602 
	C64.981728,841.561462 69.305214,849.192139 75.502625,854.455811 
	C89.889977,866.675659 106.752953,875.173462 124.353081,881.921021 
	C144.585342,889.677612 165.653458,894.760864 187.226990,895.699524 
	C204.694138,896.459412 222.418884,895.792175 239.765045,893.633728 
	C258.867279,891.256775 277.215118,884.988403 294.443176,876.107666 
	C313.177643,866.450378 329.584839,853.872620 343.117706,837.502075 
	C359.080353,818.192200 368.936005,796.021790 374.785980,771.951843 
	C375.874878,767.471619 377.802551,762.778381 373.636749,757.806763 
	C367.477325,750.455872 361.799774,742.496704 357.178986,734.101990 
	C346.192780,714.142883 339.985382,692.680908 337.818512,669.863647 
	C336.257294,653.423645 336.550629,637.095398 339.252563,620.988770 
	C343.215454,597.365295 351.299316,575.059387 363.292542,554.145691 
	C375.690735,532.526001 391.857452,514.118835 411.110809,498.697388 
	C432.142303,481.851715 455.862854,469.228180 481.667480,461.345825 
	C496.408844,456.842865 511.697632,453.975891 526.884521,451.149170 
	C535.251831,449.591797 543.912537,449.190491 552.451477,449.079620 
	C563.581726,448.935059 574.750244,449.224335 585.847900,450.054321 
	C592.099426,450.521820 594.860962,449.952057 596.773865,445.598724 
	C605.697998,425.289368 614.669617,405.000671 623.690613,384.734131 
	C630.990540,368.334106 638.491760,352.023071 645.709839,335.587402 
	C654.232422,316.181091 662.832825,296.799866 670.831177,277.176178 
	C674.866028,267.276917 679.630371,257.039215 680.535278,246.647186 
	C681.938416,230.533569 680.583313,214.145233 679.835510,197.899246 
	C679.601318,192.812042 678.228760,187.510208 676.161926,182.845001 
	C673.811279,177.538956 672.626587,172.329193 672.984009,166.623871 
	C673.386841,160.194565 673.620422,153.754684 674.018127,147.324997 
	C674.241089,143.721725 674.616577,140.126709 674.980286,136.533722 
	C675.294678,133.428360 674.709534,130.947601 672.191162,128.575821 
	C661.309509,118.327477 650.579834,107.912094 640.027893,97.325218 
	C638.396729,95.688644 637.264954,92.882538 637.134888,90.548592 
	C636.755371,83.737549 637.349243,76.866463 636.857544,70.069855 
	C636.598938,66.494438 635.713013,62.411194 633.669678,59.606998 
	C619.323486,39.918060 604.601685,20.502777 590.000000,1.000002 
	C1023.619507,1.000000 1457.239014,1.000000 1890.929199,1.000000 
	C1890.929199,355.247681 1890.929199,709.495361 1890.929199,1064.000000 
	C1415.637329,1064.000000 940.274597,1064.000000 464.621277,1063.616211 
	C467.793610,1062.505249 471.684479,1062.556885 474.651154,1060.926758 
	C496.639282,1048.844482 516.094360,1033.625000 532.340454,1014.296326 
	C544.101746,1000.303345 553.302734,984.854675 558.816895,967.590942 
	C565.433777,946.875122 570.101929,925.642639 566.957336,903.601990 
	C565.674927,894.613892 564.628662,885.490051 562.186340,876.789795 
	C556.280029,855.750061 543.844360,838.733032 527.744507,824.226990 
	C521.949463,819.005493 515.651672,815.448914 507.441956,817.013000 
	C493.087585,819.747803 478.983337,817.171936 465.009277,814.381958 
	C457.688873,812.920349 450.642334,810.086975 443.114685,807.762756 
	C470.075928,853.411255 470.374023,898.849121 444.295319,944.852905 
	C450.114746,944.802063 454.609955,946.352966 455.765137,951.622009 
	C456.669342,955.746155 456.767151,960.123718 452.049225,963.022522 
	C444.496918,967.662903 439.902527,963.597900 436.673553,958.820312 
	C425.322784,970.172119 414.565857,981.746277 402.922058,992.346191 
	C391.193024,1003.023743 377.419556,1011.008789 362.322906,1015.810364 
	C349.883148,1019.766846 336.984528,1022.499146 324.115601,1024.804932 
	C316.545349,1026.161377 308.622772,1026.068481 300.882751,1025.833740 
	C290.472076,1025.518066 280.084625,1024.436523 269.687225,1023.683716 
	C269.554840,1024.207520 269.422455,1024.731201 269.290100,1025.255005 
	C280.241302,1029.843750 291.023560,1034.903687 302.184998,1038.906250 
	C317.366119,1044.350342 332.580231,1050.122314 348.252441,1053.664185 
	C365.492493,1057.560425 382.805267,1061.987061 400.755157,1062.098389 
	C405.173859,1062.125854 409.585236,1063.334473 414.000000,1064.000000 
M480.794434,704.442810 
	C480.389099,704.417053 479.983734,704.391296 479.578400,704.365540 
	C479.934082,704.732300 480.289795,705.099060 480.878632,706.101257 
	C486.884979,711.830872 494.195892,716.022034 502.160950,716.652954 
	C517.275330,717.850281 520.276062,720.111633 525.093811,701.747986 
	C525.698792,699.442078 525.608032,696.953613 525.863159,694.305664 
	C521.878906,695.416687 518.927429,697.136963 516.248230,696.784912 
	C511.788330,696.198914 509.618195,698.390747 507.463440,701.473511 
	C509.239288,704.164246 510.502625,707.108521 507.114075,709.217834 
	C504.071289,711.112000 501.842255,709.646301 500.492035,706.436096 
	C500.215118,705.777771 498.978699,705.170105 498.166901,705.146545 
	C492.469299,704.980957 486.767090,704.974792 480.794434,704.442810 
M97.859596,881.364929 
	C97.401970,881.302063 96.944351,881.239197 96.486725,881.176331 
	C96.740120,881.653198 96.993515,882.130066 97.698654,883.129700 
	C109.841560,896.960938 121.469711,911.291992 134.275833,924.479187 
	C146.450394,937.015991 159.313080,949.023743 172.856354,960.057373 
	C190.373764,974.328613 208.730774,987.589355 227.017075,1000.885193 
	C232.988693,1005.227051 239.478607,1009.885864 246.425278,1011.619202 
	C257.269043,1014.324890 268.672180,1015.260193 279.896393,1015.861511 
	C297.548523,1016.807251 315.269592,1016.254028 332.664062,1012.880371 
	C358.966400,1007.778931 383.021118,997.753540 403.690521,980.011780 
	C419.320618,966.595459 432.086029,951.012817 441.409485,932.840942 
	C447.686829,920.606018 452.404266,907.504456 452.924896,893.507202 
	C453.352417,882.013794 454.277771,870.296265 452.597473,859.033936 
	C450.853149,847.342712 447.119629,835.722168 442.644012,824.726868 
	C437.974182,813.254395 433.676147,800.791809 420.265015,795.706970 
	C418.478180,795.029480 416.823029,793.882568 415.268585,792.734253 
	C405.494232,785.513794 395.765686,778.231506 386.793945,771.544922 
	C379.355255,820.374451 350.997864,855.628479 310.214874,882.435120 
	C315.682434,886.395691 317.523041,890.578125 315.697205,895.514648 
	C314.113434,899.796631 310.877197,902.491333 306.293915,902.007629 
	C303.631256,901.726624 300.600006,900.409546 298.716217,898.559265 
	C296.857025,896.733215 296.234497,893.648132 294.956604,890.870117 
	C272.610596,903.400574 248.012756,908.436523 222.926147,910.742859 
	C210.638687,911.872559 198.096817,910.530029 185.686554,909.952332 
	C170.836090,909.261108 156.607285,905.401184 142.400436,901.216431 
	C126.778572,896.614868 112.423111,889.321716 97.859596,881.364929 
M655.018738,820.527344 
	C637.645569,801.197144 616.103455,789.232117 590.635498,784.378906 
	C587.832947,783.844849 584.267456,783.556641 581.999451,784.832153 
	C578.356873,786.880676 575.808960,790.807434 572.253845,793.093506 
	C563.576721,798.673279 554.807190,804.196045 545.642944,808.900208 
	C539.952698,811.821045 533.473450,813.204651 527.233154,815.317200 
	C563.978882,843.256165 579.531616,880.365479 576.608215,925.721313 
	C583.498535,924.085083 588.614868,925.115356 590.667114,929.127197 
	C592.823181,933.341797 593.176270,937.947327 589.553406,941.470215 
	C587.702698,943.269836 584.717651,944.644348 582.169617,944.779053 
	C579.566284,944.916748 576.870239,943.301392 574.050232,942.400879 
	C563.994934,994.963074 538.693787,1036.827148 486.997650,1060.936401 
	C490.218079,1060.936401 491.765839,1061.187988 493.203827,1060.897095 
	C505.897034,1058.328857 518.574158,1055.680664 531.249573,1053.025146 
	C559.370667,1047.133301 586.343201,1037.649902 612.102051,1025.153198 
	C627.498474,1017.683838 642.168152,1008.604187 656.698669,999.504456 
	C665.392212,994.060242 674.330566,989.092957 678.344849,977.815552 
	C684.673340,960.037048 689.106140,942.090454 689.967102,923.290466 
	C690.768372,905.794312 687.850037,888.699524 682.864868,872.043762 
	C677.241089,853.254333 668.385864,836.026733 655.018738,820.527344 
M692.943848,881.751221 
	C694.308105,891.424805 695.429810,901.140381 697.096191,910.761658 
	C699.328918,923.652710 697.702515,936.370117 695.389648,948.943848 
	C693.777954,957.705933 690.697388,966.197754 688.220093,974.998108 
	C688.932861,974.838196 689.563538,974.892822 689.844604,974.605469 
	C702.420837,961.750122 716.031799,949.719238 727.231812,935.755310 
	C739.764709,920.129456 750.444092,902.964172 761.317627,886.074463 
	C773.541199,867.087830 781.871765,846.184326 789.475037,825.006409 
	C789.846558,823.971680 790.151794,822.646790 789.833130,821.670715 
	C785.465332,808.292114 780.507935,795.207092 772.833069,783.237305 
	C763.115479,768.081787 750.978210,755.239197 737.261414,743.700867 
	C719.369873,728.650940 698.720154,719.644714 675.690308,717.221252 
	C657.826355,715.341370 640.002197,717.274780 623.026794,724.028076 
	C617.712646,726.142212 613.691406,728.688171 612.080139,735.248779 
	C608.167297,751.181458 599.434692,764.850403 589.107788,777.752197 
	C630.108276,784.250366 659.770142,806.048645 678.761963,842.475952 
	C684.661377,837.620239 689.143433,836.707825 693.628113,839.542236 
	C697.605042,842.055786 698.679260,846.169800 697.852600,850.388672 
	C696.637085,856.592529 691.674927,858.284729 686.048767,858.388977 
	C688.268066,866.154236 690.391602,873.584229 692.943848,881.751221 
M762.012573,754.519775 
	C775.817993,769.832336 788.046570,786.188049 795.437988,805.786865 
	C795.937134,804.715881 795.834595,803.849182 796.056519,803.075562 
	C802.018311,782.294861 803.702515,760.966675 803.929077,739.496948 
	C804.023254,730.576721 803.478149,721.639648 802.957520,712.725891 
	C802.479126,704.533936 802.273926,696.249146 800.824585,688.207886 
	C798.327148,674.351685 795.050903,660.631104 791.874878,646.906006 
	C791.242249,644.171997 790.229492,640.950256 788.271301,639.227051 
	C784.921814,636.279541 780.769714,634.188293 776.809570,632.000061 
	C758.095703,621.659302 738.107605,615.894470 716.755005,613.800110 
	C700.815002,612.236633 685.423218,613.445129 670.189148,617.956238 
	C648.355652,624.421326 630.733643,637.111877 616.782227,654.896973 
	C613.992737,658.452881 611.026001,661.839294 613.146362,667.909912 
	C619.008484,684.693176 619.491272,702.124939 616.144836,720.139648 
	C653.656433,701.979004 690.003357,704.852478 725.442627,725.431152 
	C726.717896,717.182068 729.440735,713.569458 734.448486,713.003296 
	C739.778870,712.400696 743.917603,714.667969 745.608215,719.116821 
	C747.735962,724.716248 745.877930,728.349243 738.257690,733.491638 
	C746.010498,740.331543 753.763367,747.171509 762.012573,754.519775 
M740.465271,550.976074 
	C739.729553,549.906921 739.162842,548.654419 738.232300,547.796570 
	C727.401367,537.812744 716.519165,527.884521 705.642822,517.949951 
	C700.107483,512.893860 694.403625,508.435791 686.080505,509.950287 
	C680.627136,510.942535 674.958008,510.937897 669.606445,512.268372 
	C643.812134,518.681213 620.189636,529.017517 602.451477,549.967346 
	C593.908875,560.056580 587.673462,571.336365 584.116333,583.956909 
	C582.144470,590.952698 580.938660,598.235474 580.151489,605.471985 
	C579.501343,611.449463 579.191223,617.987976 584.173706,622.534180 
	C594.638977,632.082886 603.326538,642.880859 609.349243,655.791687 
	C626.038391,625.341675 651.569031,608.050232 685.830444,603.595337 
	C683.063843,596.024353 685.184875,589.802673 691.403259,588.348511 
	C693.931580,587.757324 697.046326,588.259094 699.538757,589.202576 
	C706.163757,591.710693 703.217834,598.204163 704.292358,602.787537 
	C733.956543,604.922241 761.664673,611.652893 786.197449,630.897156 
	C785.779480,629.150208 785.734497,628.553101 785.500244,628.042969 
	C779.295166,614.529724 774.020630,600.473083 766.581055,587.675476 
	C759.183350,574.949890 749.606323,563.491211 740.465271,550.976074 
M514.454712,518.044067 
	C510.813934,530.449951 508.585571,542.880432 509.825348,556.036865 
	C511.265808,571.323059 515.972229,585.169556 524.486145,597.789124 
	C525.252991,598.925781 527.103577,599.611450 528.577759,599.943542 
	C536.159058,601.650879 543.975342,602.569885 551.336792,604.928101 
	C559.043762,607.396912 566.327698,611.186462 573.898193,614.442505 
	C570.744324,594.401855 576.962463,564.938721 597.738647,542.341370 
	C592.274902,540.177368 587.923828,536.333435 588.382324,530.448608 
	C588.612671,527.492981 592.181580,523.199768 595.066467,522.364746 
	C602.166626,520.309814 608.217957,522.495178 609.040344,530.026917 
	C620.761169,523.603210 631.728760,516.507812 643.558716,511.415588 
	C655.268066,506.375214 667.847412,503.356049 679.339050,499.676422 
	C663.453979,490.278046 645.693115,481.662354 626.667480,476.153687 
	C613.781189,472.422607 600.569946,469.739258 587.406250,467.069366 
	C579.901489,465.547241 572.179199,465.131622 564.593018,463.968719 
	C554.700623,462.452301 546.878906,465.649445 540.883240,473.609589 
	C538.427612,476.869873 535.738831,479.955200 533.301697,483.228485 
	C525.501709,493.704681 518.964478,504.873779 514.454712,518.044067 
M479.695435,614.050049 
	C491.080994,607.130249 503.192627,602.164917 516.990295,600.704041 
	C506.883362,583.514587 501.813416,565.287964 500.762573,545.316223 
	C495.135834,548.893616 491.399017,545.763367 488.478973,542.602783 
	C485.945984,539.861145 485.001190,536.042114 487.047516,532.079102 
	C489.115204,528.074707 493.052734,526.046936 497.836060,526.935425 
	C501.202759,527.560791 503.156067,527.621948 504.320709,522.876526 
	C507.413788,510.273529 511.954590,498.001343 519.941895,487.520782 
	C525.911255,479.688171 532.493347,472.322540 538.544434,465.058807 
	C538.743958,465.069611 538.100769,464.965363 537.468323,465.010834 
	C520.521667,466.229889 504.013702,469.655975 487.911133,475.026581 
	C470.904480,480.698792 454.737335,488.188782 439.609253,497.835083 
	C437.507751,499.175079 434.923401,500.639587 433.940369,502.702881 
	C429.071686,512.922119 426.652557,523.874084 426.055817,535.144043 
	C425.515350,545.351318 426.569916,555.392029 428.851929,565.459106 
	C434.262115,589.325806 446.068298,608.360413 467.935364,620.329773 
	C468.993256,620.908813 470.972076,621.028320 471.886017,620.414673 
	C474.458191,618.687317 476.698059,616.465149 479.695435,614.050049 
M413.733673,666.950928 
	C425.320984,671.771118 437.438690,671.286194 449.711609,670.822693 
	C450.820007,655.393005 453.568756,640.804626 464.305359,628.992126 
	C464.700256,628.557617 464.034485,626.257385 463.282532,625.816406 
	C450.605896,618.381714 439.152527,609.671570 431.230621,596.930664 
	C430.692902,596.065796 428.470398,595.791199 427.126434,595.967163 
	C422.289856,596.600708 417.965698,594.657288 416.257324,590.733887 
	C414.786621,587.356445 416.762329,583.117310 420.797241,580.132141 
	C421.861328,579.344910 423.046112,577.534485 422.852081,576.425537 
	C421.594727,569.239746 419.669098,562.164551 418.561676,554.960999 
	C417.640656,548.970276 416.768066,542.789978 417.258575,536.807190 
	C417.982819,527.973816 419.935303,519.241211 421.628845,508.844208 
	C413.173462,517.308105 405.337067,524.897461 397.788940,532.763428 
	C383.965363,547.169189 373.980896,564.099365 365.968628,582.261719 
	C363.272125,588.374207 361.185608,594.225769 362.794098,601.497192 
	C369.368561,631.217896 384.695343,653.820801 413.733673,666.950928 
M448.917480,732.581055 
	C456.494507,727.277893 464.071564,721.974670 472.233826,716.261902 
	C459.083679,705.662598 453.436920,692.539185 450.448181,678.000305 
	C444.999603,678.000305 439.761963,678.482178 434.648315,677.891296 
	C426.262451,676.922180 417.867157,675.636047 409.663422,673.692017 
	C406.516968,672.946472 405.569275,673.096985 404.289886,676.044678 
	C402.295227,680.640320 396.952087,682.240540 393.159973,679.954651 
	C387.647888,676.631775 386.555145,672.526794 389.875153,667.570984 
	C390.562622,666.544678 391.288605,665.544189 391.988983,664.542969 
	C373.819275,651.274109 360.637054,635.024658 356.097626,612.572144 
	C354.726227,620.701172 353.600800,628.773071 353.010345,636.883911 
	C352.410980,645.116760 351.241241,653.529663 352.282806,661.610901 
	C354.043030,675.267395 356.781799,688.871399 360.232025,702.206970 
	C362.098724,709.421997 364.632477,717.847717 369.772705,722.547119 
	C380.769806,732.601013 395.103271,736.969116 410.019897,737.900635 
	C422.993652,738.710693 435.979767,738.354126 448.917480,732.581055 
M1441.047119,627.590149 
	C1417.965698,678.311890 1394.884155,729.033630 1371.632812,780.128479 
	C1370.631592,778.239563 1369.881104,776.993225 1369.286377,775.676392 
	C1358.354858,751.467651 1347.489990,727.228638 1336.505981,703.043701 
	C1330.510498,689.842285 1324.226685,676.771606 1318.238403,663.566956 
	C1308.729126,642.598328 1299.381592,621.556335 1289.863037,600.591919 
	C1289.369873,599.505737 1287.981201,598.229065 1286.899902,598.119202 
	C1283.675781,597.791687 1280.397095,598.001587 1277.326050,598.001587 
	C1277.326050,662.409058 1277.326050,726.152954 1277.326050,789.840942 
	C1279.612305,789.840942 1281.571289,789.840942 1283.899414,789.840942 
	C1283.899414,728.642883 1283.899414,667.601807 1283.899414,605.058044 
	C1290.469971,619.563782 1296.359253,632.708069 1302.368774,645.797119 
	C1310.366333,663.216553 1318.535522,680.557373 1326.490845,697.995850 
	C1339.723633,727.002075 1352.925537,756.023132 1365.926880,785.133423 
	C1367.884399,789.516174 1370.352661,791.143127 1374.404541,789.741150 
	C1402.496216,728.458313 1430.455688,667.463806 1458.415283,606.469238 
	C1458.717896,606.547668 1459.020630,606.626099 1459.323242,606.704529 
	C1459.323242,667.777222 1459.323242,728.849854 1459.323242,789.811768 
	C1461.678711,789.811768 1463.634277,789.811768 1465.788208,789.811768 
	C1465.788208,725.884888 1465.788208,662.146118 1465.788208,598.000427 
	C1462.647949,598.000427 1459.661133,597.758484 1456.746582,598.111755 
	C1455.464233,598.267090 1453.740601,599.362915 1453.220215,600.493469 
	C1449.185425,609.257629 1445.395630,618.134644 1441.047119,627.590149 
M413.351440,774.066284 
	C423.787842,780.049133 434.157654,786.153625 444.705566,791.932861 
	C447.482727,793.454468 450.953094,795.088379 453.856354,794.718445 
	C460.082458,793.924988 466.268433,792.226074 472.251678,790.238220 
	C485.223328,785.928772 495.187286,777.588623 503.188354,766.557495 
	C511.079315,755.678162 515.056519,743.867798 513.822327,730.644348 
	C506.972595,729.711731 500.320709,729.500244 494.095215,727.761719 
	C487.973358,726.052063 482.284210,722.792786 477.422729,720.659912 
	C468.379395,727.323975 459.773590,733.560059 451.330109,740.008667 
	C450.147064,740.912231 449.003387,742.934631 449.141907,744.307922 
	C449.623169,749.079163 447.143127,751.722046 443.161163,752.746704 
	C439.070770,753.799377 435.807495,752.001404 433.537415,748.221130 
	C432.896332,747.153442 430.986572,746.026184 429.853668,746.199646 
	C414.867981,748.494141 400.472595,747.023499 386.888641,739.956482 
	C383.228180,738.052124 379.703552,735.886902 376.116577,733.841370 
	C385.268829,750.169617 398.107605,762.835144 413.351440,774.066284 
M1543.002075,768.502686 
	C1561.303955,786.792725 1583.881470,794.992920 1609.269653,795.906982 
	C1623.189331,796.408020 1636.903687,794.317566 1649.860596,788.938416 
	C1671.248779,780.058838 1688.139526,765.878174 1698.922852,745.171143 
	C1709.274170,725.293823 1712.586792,704.166443 1710.165527,681.801392 
	C1708.535400,666.743774 1704.672974,652.661255 1696.946289,639.695435 
	C1680.601807,612.269226 1656.142090,596.637939 1624.761841,593.262268 
	C1602.072021,590.821472 1579.938721,594.060120 1559.777344,606.517944 
	C1544.325317,616.065796 1532.139404,628.582031 1524.276733,644.688782 
	C1513.500854,666.763245 1510.409424,690.167725 1514.932861,714.543457 
	C1518.767578,735.207031 1527.194092,753.335022 1543.002075,768.502686 
M754.501831,416.000000 
	C760.997437,416.000000 767.495178,416.109161 773.988159,415.978760 
	C790.929993,415.638489 807.875244,416.928558 824.738464,413.154541 
	C845.332642,408.545441 863.335632,400.063629 877.568420,384.024811 
	C891.573669,368.242310 897.588318,349.429291 898.864380,328.974518 
	C899.772949,314.411743 898.667175,299.939453 894.125671,285.777496 
	C888.694214,268.839905 879.430969,254.657196 865.231079,244.114471 
	C845.922607,229.778793 823.323120,224.975632 799.894043,224.138977 
	C780.764648,223.455872 761.591492,223.994781 742.437744,224.010651 
	C741.008911,224.011826 739.580139,224.164047 738.291748,224.238007 
	C738.291748,288.350739 738.291748,352.055786 738.291748,416.000000 
	C743.555420,416.000000 748.529419,416.000000 754.501831,416.000000 
M513.255859,802.999146 
	C518.526794,801.979065 523.955444,801.449341 529.029358,799.817017 
	C535.630432,797.693237 543.103943,796.023376 548.075012,791.708069 
	C553.347900,787.130798 556.614868,779.928345 559.892090,773.435425 
	C565.708618,761.911682 565.101807,749.434570 562.789368,737.283752 
	C560.881592,727.259338 555.373901,718.927185 546.565308,712.763550 
	C540.107605,720.591858 532.057739,725.619690 522.462463,728.366943 
	C521.349609,728.685547 520.244629,730.937805 520.093262,732.393311 
	C519.234924,740.644226 518.668213,748.925476 517.964905,757.658936 
	C522.867493,760.955933 524.661377,765.409424 522.334778,769.905212 
	C520.005066,774.407043 515.594116,775.193115 508.447693,772.380127 
	C496.950470,787.200012 482.322754,796.615479 463.005219,798.612976 
	C473.058533,800.774231 482.892151,802.151733 492.773346,802.907288 
	C499.258026,803.403198 505.811371,803.000427 513.255859,802.999146 
M1759.000000,786.320557 
	C1759.126221,787.541504 1759.252441,788.762451 1759.355713,789.761230 
	C1761.798584,789.761230 1763.737671,789.761230 1766.086426,789.761230 
	C1766.086426,757.786438 1766.086426,726.047241 1766.086426,694.000549 
	C1780.475830,694.000549 1794.442871,693.952637 1808.407959,694.093628 
	C1809.494873,694.104614 1810.980225,695.188416 1811.588257,696.192566 
	C1829.387573,725.586060 1847.314331,754.907288 1864.617432,784.591614 
	C1867.583862,789.680847 1870.639404,790.634338 1875.715820,789.683838 
	C1856.463989,757.611572 1837.251587,725.605103 1818.454102,694.289734 
	C1826.772217,692.528992 1835.440063,691.679565 1843.367432,688.795044 
	C1856.695190,683.945557 1866.748901,675.104065 1871.067139,660.867981 
	C1874.055542,651.015564 1873.904541,641.034607 1871.538818,631.271240 
	C1869.326904,622.142395 1864.456909,614.452271 1856.477539,608.772766 
	C1845.221924,600.761292 1832.281982,598.685608 1819.165283,598.160950 
	C1802.526245,597.495361 1785.840332,598.000000 1769.174683,598.000000 
	C1765.891602,598.000000 1762.608398,598.000000 1759.000000,598.000000 
	C1759.000000,660.771057 1759.000000,723.063232 1759.000000,786.320557 
M1116.662842,789.917053 
	C1118.623291,789.917053 1120.583740,789.917053 1123.137207,789.917053 
	C1123.137207,757.807556 1123.137207,725.944275 1123.137207,694.118652 
	C1138.384644,694.118652 1153.035156,694.118652 1167.583252,694.118652 
	C1167.938354,694.844910 1168.185669,695.460876 1168.522339,696.023438 
	C1185.915161,725.090515 1203.369995,754.120789 1220.660645,783.248474 
	C1223.447754,787.943542 1226.153320,791.932190 1232.629517,789.561951 
	C1213.479370,757.646484 1194.214478,725.539795 1175.505249,694.359131 
	C1183.839233,692.558899 1192.345337,691.614319 1200.196777,688.826477 
	C1213.610107,684.063843 1223.632446,675.192200 1228.030396,661.039795 
	C1231.080444,651.225159 1230.996338,641.186279 1228.597656,631.438904 
	C1226.010498,620.925232 1220.153198,612.404114 1210.393311,606.709717 
	C1199.793335,600.525146 1188.138306,598.547424 1176.343994,598.162231 
	C1157.697998,597.553223 1139.017456,597.994751 1120.351562,598.010559 
	C1118.929443,598.011780 1117.507202,598.162781 1116.060791,598.245544 
	C1116.060791,662.198853 1116.060791,725.689575 1116.662842,789.917053 
M1222.999268,412.526672 
	C1223.290527,408.502777 1220.200195,410.067474 1218.505737,410.063141 
	C1185.183716,409.978302 1151.861694,410.000000 1118.539551,410.000000 
	C1116.773071,410.000000 1115.006714,410.000000 1113.291016,410.000000 
	C1113.291016,379.696503 1113.291016,349.968018 1113.291016,319.842529 
	C1146.656616,319.842529 1179.733032,319.842529 1213.045410,319.842529 
	C1212.948242,317.689972 1212.869873,315.952423 1212.773682,313.820557 
	C1179.346436,313.820557 1146.282593,313.820557 1113.304688,313.820557 
	C1113.304688,285.669769 1113.304688,257.940643 1113.304688,229.817429 
	C1148.684570,229.817429 1183.761353,229.817429 1219.053955,229.817429 
	C1218.948486,227.670380 1218.863037,225.932434 1218.783325,224.311371 
	C1180.985718,224.311371 1143.592285,224.311371 1106.303345,224.311371 
	C1106.303345,288.343445 1106.303345,352.063721 1106.303345,415.999664 
	C1144.406860,415.999664 1182.207642,416.019073 1220.007690,415.893768 
	C1221.007690,415.890472 1222.002319,414.313782 1222.999268,412.526672 
M1058.170532,229.939545 
	C1058.529663,228.135513 1058.888916,226.331467 1059.280518,224.364990 
	C1021.129700,224.364990 983.610840,224.364990 946.356079,224.364990 
	C946.356079,288.450378 946.356079,352.170441 946.356079,415.657684 
	C985.446106,415.657684 1024.179565,415.657684 1062.830200,415.657684 
	C1062.830200,413.686462 1062.830200,412.060760 1062.830200,409.860535 
	C1026.142212,409.860535 989.618530,409.860535 953.364319,409.860535 
	C953.364319,379.548584 953.364319,349.819305 953.364319,319.690643 
	C986.791321,319.690643 1019.854736,319.690643 1052.818726,319.690643 
	C1052.818726,317.659912 1052.818726,316.037262 1052.818726,313.839783 
	C1019.452393,313.839783 986.261414,313.839783 953.199951,313.839783 
	C953.199951,285.644135 953.199951,258.033234 953.199951,229.995010 
	C988.004700,229.995010 1022.611084,229.995010 1058.170532,229.939545 
M981.500000,735.000000 
	C1004.322083,735.000000 1027.144409,734.956116 1049.965576,735.095703 
	C1051.538452,735.105347 1054.018188,736.089844 1054.532349,737.285156 
	C1061.135864,752.634766 1067.845215,767.962036 1073.642944,783.622620 
	C1075.688721,789.148743 1077.971191,791.315613 1083.632812,789.534729 
	C1080.525391,781.935303 1077.480103,774.323486 1074.309814,766.764160 
	C1062.000854,737.414612 1049.580566,708.111633 1037.340088,678.733704 
	C1026.461426,652.624512 1015.825562,626.413940 1004.817200,600.360229 
	C1004.255737,599.031555 1001.191528,598.187195 999.284058,598.171814 
	C997.586548,598.158020 994.885620,599.176758 994.318909,600.476929 
	C982.180237,628.328308 970.362061,656.319031 958.311279,684.209167 
	C945.553284,713.736267 932.608826,743.182861 919.768005,772.674316 
	C917.348999,778.229858 915.034851,783.831116 912.672424,789.411316 
	C912.984192,789.871033 913.295959,790.330688 913.607666,790.790344 
	C916.064148,789.820923 919.980713,789.503662 920.750366,787.780762 
	C928.155090,771.203186 934.967407,754.361755 942.178528,737.695068 
	C942.733948,736.411377 945.015991,735.145569 946.518982,735.117126 
	C957.842712,734.902405 969.172241,735.000000 981.500000,735.000000 
M1273.562500,224.000000 
	C1271.127197,224.000000 1268.691895,224.000000 1266.248901,224.000000 
	C1266.248901,288.275177 1266.248901,351.993835 1266.248901,415.742493 
	C1268.573853,415.742493 1270.640015,415.742493 1273.103760,415.742493 
	C1273.103760,384.426819 1273.103760,353.365875 1273.103760,322.000000 
	C1289.804810,322.000000 1306.099609,321.832611 1322.388428,322.069855 
	C1330.669556,322.190460 1338.596558,320.890656 1346.282959,317.993927 
	C1360.848267,312.504852 1372.157593,303.421692 1375.856323,287.693939 
	C1377.631348,280.145844 1378.467651,272.007843 1377.738892,264.325806 
	C1376.618652,252.519272 1371.125732,242.563171 1361.023926,235.416702 
	C1349.868774,227.524994 1337.204346,224.574463 1324.014404,224.132584 
	C1307.541748,223.580765 1291.036499,224.000000 1273.562500,224.000000 
M579.085693,731.784607 
	C579.472961,736.357605 577.672546,739.660034 573.178345,740.933350 
	C570.018677,741.828552 570.000671,743.917236 569.968994,746.555176 
	C569.897461,752.524536 570.024109,758.573914 569.085510,764.433044 
	C568.177063,770.104126 566.036194,775.577698 564.022339,782.578186 
	C568.438538,778.893677 572.406799,776.317932 575.451355,772.915771 
	C588.721436,758.086914 598.379211,741.228516 602.672363,721.616089 
	C604.310303,714.133484 606.644531,706.451294 599.603821,700.103149 
	C597.133667,697.876038 595.060730,695.190369 592.504272,693.080017 
	C582.325073,684.677246 570.949585,679.714905 558.930847,681.058228 
	C556.188782,690.109680 553.650757,698.246765 551.335938,706.446838 
	C551.060669,707.421997 551.728943,708.947754 552.424683,709.866089 
	C556.554260,715.316956 560.820862,720.663940 565.155334,726.191162 
	C571.986145,723.114502 576.000122,724.352783 579.085693,731.784607 
M567.317993,676.000061 
	C569.718506,676.166138 572.119019,676.332214 573.149658,676.403503 
	C575.641357,673.524841 577.255615,670.657227 579.707825,669.247864 
	C580.941223,668.539124 585.075989,670.038574 585.482971,671.311707 
	C586.385864,674.136108 585.764343,677.447876 585.764343,680.268799 
	C591.812805,685.406067 598.433350,691.029236 605.093445,696.685974 
	C604.671204,681.929626 600.628845,667.916138 593.997498,654.123230 
	C587.739441,641.106812 578.166565,637.265991 564.910583,638.982971 
	C553.633850,640.443665 543.864746,644.745056 536.136108,653.501343 
	C545.915466,658.319702 552.154846,665.992493 555.621277,676.000122 
	C559.396667,676.000122 562.884033,676.000122 567.317993,676.000061 
M469.723938,644.466858 
	C462.182190,654.294250 461.698639,665.860596 463.491669,677.120239 
	C464.554993,683.797485 467.510040,691.450378 472.205292,695.977661 
	C479.524750,703.035034 499.258850,703.721008 508.030548,696.001953 
	C504.623291,691.814636 499.802155,688.133667 498.214233,683.374023 
	C496.199280,677.334229 492.714203,674.204529 487.369049,672.079041 
	C486.319397,671.661621 485.376556,670.975525 484.384430,670.413330 
	C484.487915,670.802307 484.591370,671.191284 484.694855,671.580200 
	C482.504120,672.380249 480.357880,673.514709 478.100708,673.814697 
	C477.204865,673.933777 475.057709,671.936707 475.209991,671.359863 
	C475.816650,669.062134 477.104919,666.944397 477.871887,665.327026 
	C475.355560,658.544617 472.825958,651.726501 469.723938,644.466858 
M517.444580,626.088989 
	C513.303955,634.295776 509.893494,642.597168 513.357727,651.472290 
	C519.935852,651.472290 525.768860,651.472290 531.410278,651.472290 
	C535.487549,647.204285 539.582458,642.917847 542.814087,639.535034 
	C541.095032,636.360107 538.794617,633.682495 538.462463,630.779663 
	C538.315002,629.490784 542.067017,626.573792 544.179321,626.439148 
	C549.620483,626.092224 550.322449,630.575684 550.323242,635.341614 
	C559.225159,632.099854 567.767395,630.885925 577.466370,634.617188 
	C563.308838,620.991516 547.032837,615.758423 529.293335,614.114441 
	C528.642944,614.054077 527.764160,614.725403 527.242798,615.288208 
	C524.107056,618.672974 521.044678,622.125610 517.444580,626.088989 
M485.496246,662.998962 
	C488.882721,666.166016 492.269196,669.333130 494.755920,671.658752 
	C498.945923,666.077698 502.615601,661.210144 506.255829,656.320679 
	C506.858765,655.510803 507.891083,654.516724 507.770874,653.759277 
	C507.241821,650.426147 506.362915,647.148560 505.610840,643.850830 
	C505.276276,644.221130 504.941742,644.591370 504.607208,644.961670 
	C502.187256,643.595886 499.155426,642.709167 497.572876,640.687805 
	C496.596069,639.440125 497.045074,635.313416 498.232300,634.505859 
	C500.611237,632.888123 503.935944,632.661011 507.387604,631.718567 
	C510.273529,626.839233 513.730225,620.994812 517.414734,614.765259 
	C502.315063,615.880493 489.627228,621.575134 479.266052,632.318115 
	C478.469391,633.144043 478.132050,634.656372 478.043335,635.883057 
	C477.346649,645.513794 478.749695,654.630859 485.496246,662.998962 
M530.289673,711.898560 
	C531.749756,710.821899 533.320007,709.865662 534.650391,708.647339 
	C539.879333,703.858276 544.249390,698.534058 543.975647,690.886597 
	C543.786682,685.606567 539.380676,681.764404 534.040894,682.002991 
	C528.098511,682.268494 529.513123,686.989868 529.045593,690.465210 
	C528.857056,691.866821 529.206848,693.340942 529.301331,694.640137 
	C532.635742,695.600525 537.799500,693.397339 536.940369,699.449158 
	C536.299744,703.961731 532.754700,703.213013 529.557922,702.364136 
	C527.521301,706.495667 525.539612,710.515808 523.136841,715.390137 
	C525.851501,714.021667 527.728882,713.075256 530.289673,711.898560 
M374.721649,733.890442 
	C374.783417,733.457947 374.845184,733.025513 374.906921,732.593018 
	C374.653839,732.886230 374.400787,733.179443 374.721649,733.890442 
M562.172913,782.509460 
	C562.352722,782.870911 562.532593,783.232361 562.712402,783.593811 
	C562.728821,783.104736 562.745239,782.615662 562.172913,782.509460 
z"/>
<path fill="#3B80AD" opacity="1.000000" stroke="none" 
	d="
M589.531616,1.000002 
	C604.601685,20.502777 619.323486,39.918060 633.669678,59.606998 
	C635.713013,62.411194 636.598938,66.494438 636.857544,70.069855 
	C637.349243,76.866463 636.755371,83.737549 637.134888,90.548592 
	C637.264954,92.882538 638.396729,95.688644 640.027893,97.325218 
	C650.579834,107.912094 661.309509,118.327477 672.191162,128.575821 
	C674.709534,130.947601 675.294678,133.428360 674.980286,136.533722 
	C674.616577,140.126709 674.241089,143.721725 674.018127,147.324997 
	C673.620422,153.754684 673.386841,160.194565 672.984009,166.623871 
	C672.626587,172.329193 673.811279,177.538956 676.161926,182.845001 
	C678.228760,187.510208 679.601318,192.812042 679.835510,197.899246 
	C680.583313,214.145233 681.938416,230.533569 680.535278,246.647186 
	C679.630371,257.039215 674.866028,267.276917 670.831177,277.176178 
	C662.832825,296.799866 654.232422,316.181091 645.709839,335.587402 
	C638.491760,352.023071 630.990540,368.334106 623.690613,384.734131 
	C614.669617,405.000671 605.697998,425.289368 596.773865,445.598724 
	C594.860962,449.952057 592.099426,450.521820 585.847900,450.054321 
	C574.750244,449.224335 563.581726,448.935059 552.451477,449.079620 
	C543.912537,449.190491 535.251831,449.591797 526.884521,451.149170 
	C511.697632,453.975891 496.408844,456.842865 481.667480,461.345825 
	C455.862854,469.228180 432.142303,481.851715 411.110809,498.697388 
	C391.857452,514.118835 375.690735,532.526001 363.292542,554.145691 
	C351.299316,575.059387 343.215454,597.365295 339.252563,620.988770 
	C336.550629,637.095398 336.257294,653.423645 337.818512,669.863647 
	C339.985382,692.680908 346.192780,714.142883 357.178986,734.101990 
	C361.799774,742.496704 367.477325,750.455872 373.636749,757.806763 
	C377.802551,762.778381 375.874878,767.471619 374.785980,771.951843 
	C368.936005,796.021790 359.080353,818.192200 343.117706,837.502075 
	C329.584839,853.872620 313.177643,866.450378 294.443176,876.107666 
	C277.215118,884.988403 258.867279,891.256775 239.765045,893.633728 
	C222.418884,895.792175 204.694138,896.459412 187.226990,895.699524 
	C165.653458,894.760864 144.585342,889.677612 124.353081,881.921021 
	C106.752953,875.173462 89.889977,866.675659 75.502625,854.455811 
	C69.305214,849.192139 64.981728,841.561462 60.351742,834.641602 
	C42.802032,808.412170 29.836241,779.944519 20.509390,749.872131 
	C13.891229,728.533264 8.424628,706.871033 5.979786,684.573364 
	C4.548792,671.522339 3.163341,658.466248 1.378702,645.206238 
	C1.000000,624.312439 1.000000,603.624878 1.379643,582.260864 
	C3.185575,565.864136 3.629417,549.976257 6.275284,534.463928 
	C9.968321,512.812256 14.879540,491.338165 20.033728,469.972473 
	C29.281004,431.639679 43.789627,395.174591 60.749844,359.658600 
	C76.981979,325.667267 95.882294,293.193573 117.998039,262.717896 
	C129.919647,246.289856 142.761795,230.495316 155.780060,214.908951 
	C165.621460,203.126160 175.936264,191.653732 186.885880,180.904434 
	C199.000549,169.011398 211.745346,157.697220 224.826996,146.869461 
	C238.683456,135.400406 252.940994,124.354057 267.586731,113.913383 
	C297.588409,92.525803 329.336517,74.007095 363.051483,59.076164 
	C381.371033,50.963242 399.820740,43.036407 418.621979,36.144928 
	C445.230957,26.391569 472.346252,18.073881 500.289673,12.927667 
	C519.544067,9.381680 538.880798,6.282799 558.181458,2.988213 
	C562.119324,2.316026 566.060425,1.662259 570.000000,0.999999 
	C576.354431,1.000000 582.708801,1.000000 589.531616,1.000002 
z"/>
<path fill="#FFFFFF" opacity="1.000000" stroke="none" 
	d="
M569.531372,0.999999 
	C566.060425,1.662259 562.119324,2.316026 558.181458,2.988213 
	C538.880798,6.282799 519.544067,9.381680 500.289673,12.927667 
	C472.346252,18.073881 445.230957,26.391569 418.621979,36.144928 
	C399.820740,43.036407 381.371033,50.963242 363.051483,59.076164 
	C329.336517,74.007095 297.588409,92.525803 267.586731,113.913383 
	C252.940994,124.354057 238.683456,135.400406 224.826996,146.869461 
	C211.745346,157.697220 199.000549,169.011398 186.885880,180.904434 
	C175.936264,191.653732 165.621460,203.126160 155.780060,214.908951 
	C142.761795,230.495316 129.919647,246.289856 117.998039,262.717896 
	C95.882294,293.193573 76.981979,325.667267 60.749844,359.658600 
	C43.789627,395.174591 29.281004,431.639679 20.033728,469.972473 
	C14.879540,491.338165 9.968321,512.812256 6.275284,534.463928 
	C3.629417,549.976257 3.185575,565.864136 1.379643,581.792236 
	C1.000000,388.407013 1.000000,194.814011 1.000000,1.000000 
	C190.354172,1.000000 379.708435,1.000000 569.531372,0.999999 
z"/>
<path fill="#1B3E6E" opacity="1.000000" stroke="none" 
	d="
M414.468658,1064.000000 
	C409.585236,1063.334473 405.173859,1062.125854 400.755157,1062.098389 
	C382.805267,1061.987061 365.492493,1057.560425 348.252441,1053.664185 
	C332.580231,1050.122314 317.366119,1044.350342 302.184998,1038.906250 
	C291.023560,1034.903687 280.241302,1029.843750 269.290100,1025.255005 
	C269.422455,1024.731201 269.554840,1024.207520 269.687225,1023.683716 
	C280.084625,1024.436523 290.472076,1025.518066 300.882751,1025.833740 
	C308.622772,1026.068481 316.545349,1026.161377 324.115601,1024.804932 
	C336.984528,1022.499146 349.883148,1019.766846 362.322906,1015.810364 
	C377.419556,1011.008789 391.193024,1003.023743 402.922058,992.346191 
	C414.565857,981.746277 425.322784,970.172119 436.673553,958.820312 
	C439.902527,963.597900 444.496918,967.662903 452.049225,963.022522 
	C456.767151,960.123718 456.669342,955.746155 455.765137,951.622009 
	C454.609955,946.352966 450.114746,944.802063 444.295319,944.852905 
	C470.374023,898.849121 470.075928,853.411255 443.114685,807.762756 
	C450.642334,810.086975 457.688873,812.920349 465.009277,814.381958 
	C478.983337,817.171936 493.087585,819.747803 507.441956,817.013000 
	C515.651672,815.448914 521.949463,819.005493 527.744507,824.226990 
	C543.844360,838.733032 556.280029,855.750061 562.186340,876.789795 
	C564.628662,885.490051 565.674927,894.613892 566.957336,903.601990 
	C570.101929,925.642639 565.433777,946.875122 558.816895,967.590942 
	C553.302734,984.854675 544.101746,1000.303345 532.340454,1014.296326 
	C516.094360,1033.625000 496.639282,1048.844482 474.651154,1060.926758 
	C471.684479,1062.556885 467.793610,1062.505249 464.165344,1063.616211 
	C447.645782,1064.000000 431.291534,1064.000000 414.468658,1064.000000 
z"/>
<path fill="#1C3966" opacity="1.000000" stroke="none" 
	d="
M98.071915,881.917114 
	C112.423111,889.321716 126.778572,896.614868 142.400436,901.216431 
	C156.607285,905.401184 170.836090,909.261108 185.686554,909.952332 
	C198.096817,910.530029 210.638687,911.872559 222.926147,910.742859 
	C248.012756,908.436523 272.610596,903.400574 294.956604,890.870117 
	C296.234497,893.648132 296.857025,896.733215 298.716217,898.559265 
	C300.600006,900.409546 303.631256,901.726624 306.293915,902.007629 
	C310.877197,902.491333 314.113434,899.796631 315.697205,895.514648 
	C317.523041,890.578125 315.682434,886.395691 310.214874,882.435120 
	C350.997864,855.628479 379.355255,820.374451 386.793945,771.544922 
	C395.765686,778.231506 405.494232,785.513794 415.268585,792.734253 
	C416.823029,793.882568 418.478180,795.029480 420.265015,795.706970 
	C433.676147,800.791809 437.974182,813.254395 442.644012,824.726868 
	C447.119629,835.722168 450.853149,847.342712 452.597473,859.033936 
	C454.277771,870.296265 453.352417,882.013794 452.924896,893.507202 
	C452.404266,907.504456 447.686829,920.606018 441.409485,932.840942 
	C432.086029,951.012817 419.320618,966.595459 403.690521,980.011780 
	C383.021118,997.753540 358.966400,1007.778931 332.664062,1012.880371 
	C315.269592,1016.254028 297.548523,1016.807251 279.896393,1015.861511 
	C268.672180,1015.260193 257.269043,1014.324890 246.425278,1011.619202 
	C239.478607,1009.885864 232.988693,1005.227051 227.017075,1000.885193 
	C208.730774,987.589355 190.373764,974.328613 172.856354,960.057373 
	C159.313080,949.023743 146.450394,937.015991 134.275833,924.479187 
	C121.469711,911.291992 109.841560,896.960938 97.688004,882.706543 
	C97.808861,882.161316 97.940384,882.039246 98.071915,881.917114 
z"/>
<path fill="#183F6E" opacity="1.000000" stroke="none" 
	d="
M655.277222,820.775940 
	C668.385864,836.026733 677.241089,853.254333 682.864868,872.043762 
	C687.850037,888.699524 690.768372,905.794312 689.967102,923.290466 
	C689.106140,942.090454 684.673340,960.037048 678.344849,977.815552 
	C674.330566,989.092957 665.392212,994.060242 656.698669,999.504456 
	C642.168152,1008.604187 627.498474,1017.683838 612.102051,1025.153198 
	C586.343201,1037.649902 559.370667,1047.133301 531.249573,1053.025146 
	C518.574158,1055.680664 505.897034,1058.328857 493.203827,1060.897095 
	C491.765839,1061.187988 490.218079,1060.936401 486.997650,1060.936401 
	C538.693787,1036.827148 563.994934,994.963074 574.050232,942.400879 
	C576.870239,943.301392 579.566284,944.916748 582.169617,944.779053 
	C584.717651,944.644348 587.702698,943.269836 589.553406,941.470215 
	C593.176270,937.947327 592.823181,933.341797 590.667114,929.127197 
	C588.614868,925.115356 583.498535,924.085083 576.608215,925.721313 
	C579.531616,880.365479 563.978882,843.256165 527.233154,815.317200 
	C533.473450,813.204651 539.952698,811.821045 545.642944,808.900208 
	C554.807190,804.196045 563.576721,798.673279 572.253845,793.093506 
	C575.808960,790.807434 578.356873,786.880676 581.999451,784.832153 
	C584.267456,783.556641 587.832947,783.844849 590.635498,784.378906 
	C616.103455,789.232117 637.645569,801.197144 655.277222,820.775940 
z"/>
<path fill="#0A4876" opacity="1.000000" stroke="none" 
	d="
M692.729492,881.382690 
	C690.391602,873.584229 688.268066,866.154236 686.048767,858.388977 
	C691.674927,858.284729 696.637085,856.592529 697.852600,850.388672 
	C698.679260,846.169800 697.605042,842.055786 693.628113,839.542236 
	C689.143433,836.707825 684.661377,837.620239 678.761963,842.475952 
	C659.770142,806.048645 630.108276,784.250366 589.107788,777.752197 
	C599.434692,764.850403 608.167297,751.181458 612.080139,735.248779 
	C613.691406,728.688171 617.712646,726.142212 623.026794,724.028076 
	C640.002197,717.274780 657.826355,715.341370 675.690308,717.221252 
	C698.720154,719.644714 719.369873,728.650940 737.261414,743.700867 
	C750.978210,755.239197 763.115479,768.081787 772.833069,783.237305 
	C780.507935,795.207092 785.465332,808.292114 789.833130,821.670715 
	C790.151794,822.646790 789.846558,823.971680 789.475037,825.006409 
	C781.871765,846.184326 773.541199,867.087830 761.317627,886.074463 
	C750.444092,902.964172 739.764709,920.129456 727.231812,935.755310 
	C716.031799,949.719238 702.420837,961.750122 689.844604,974.605469 
	C689.563538,974.892822 688.932861,974.838196 688.220093,974.998108 
	C690.697388,966.197754 693.777954,957.705933 695.389648,948.943848 
	C697.702515,936.370117 699.328918,923.652710 697.096191,910.761658 
	C695.429810,901.140381 694.308105,891.424805 692.729492,881.382690 
z"/>
<path fill="#0C4D7D" opacity="1.000000" stroke="none" 
	d="
M761.764404,754.265625 
	C753.763367,747.171509 746.010498,740.331543 738.256104,733.493408 
	C745.877930,728.349243 747.735962,724.716248 745.608215,719.116821 
	C743.917603,714.667969 739.778870,712.400696 734.448486,713.003296 
	C729.440735,713.569458 726.717896,717.182068 725.442627,725.431152 
	C690.003357,704.852478 653.656433,701.979004 616.144836,720.139648 
	C619.491272,702.124939 619.008484,684.693176 613.146362,667.909912 
	C611.026001,661.839294 613.992737,658.452881 616.782227,654.896973 
	C630.733643,637.111877 648.355652,624.421326 670.189148,617.956238 
	C685.423218,613.445129 700.815002,612.236633 716.755005,613.800110 
	C738.107605,615.894470 758.095703,621.659302 776.809570,632.000061 
	C780.769714,634.188293 784.921814,636.279541 788.271301,639.227051 
	C790.229492,640.950256 791.242249,644.171997 791.874878,646.906006 
	C795.050903,660.631104 798.327148,674.351685 800.824585,688.207886 
	C802.273926,696.249146 802.479126,704.533936 802.957520,712.725891 
	C803.478149,721.639648 804.023254,730.576721 803.929077,739.496948 
	C803.702515,760.966675 802.018311,782.294861 796.056519,803.075562 
	C795.834595,803.849182 795.937134,804.715881 795.437988,805.786865 
	C788.046570,786.188049 775.817993,769.832336 761.764404,754.265625 
z"/>
<path fill="#0C5086" opacity="1.000000" stroke="none" 
	d="
M740.725098,551.226562 
	C749.606323,563.491211 759.183350,574.949890 766.581055,587.675476 
	C774.020630,600.473083 779.295166,614.529724 785.500244,628.042969 
	C785.734497,628.553101 785.779480,629.150208 786.197449,630.897156 
	C761.664673,611.652893 733.956543,604.922241 704.292358,602.787537 
	C703.217834,598.204163 706.163757,591.710693 699.538757,589.202576 
	C697.046326,588.259094 693.931580,587.757324 691.403259,588.348511 
	C685.184875,589.802673 683.063843,596.024353 685.830444,603.595337 
	C651.569031,608.050232 626.038391,625.341675 609.349243,655.791687 
	C603.326538,642.880859 594.638977,632.082886 584.173706,622.534180 
	C579.191223,617.987976 579.501343,611.449463 580.151489,605.471985 
	C580.938660,598.235474 582.144470,590.952698 584.116333,583.956909 
	C587.673462,571.336365 593.908875,560.056580 602.451477,549.967346 
	C620.189636,529.017517 643.812134,518.681213 669.606445,512.268372 
	C674.958008,510.937897 680.627136,510.942535 686.080505,509.950287 
	C694.403625,508.435791 700.107483,512.893860 705.642822,517.949951 
	C716.519165,527.884521 727.401367,537.812744 738.232300,547.796570 
	C739.162842,548.654419 739.729553,549.906921 740.725098,551.226562 
z"/>
<path fill="#125D95" opacity="1.000000" stroke="none" 
	d="
M514.688965,517.711548 
	C518.964478,504.873779 525.501709,493.704681 533.301697,483.228485 
	C535.738831,479.955200 538.427612,476.869873 540.883240,473.609589 
	C546.878906,465.649445 554.700623,462.452301 564.593018,463.968719 
	C572.179199,465.131622 579.901489,465.547241 587.406250,467.069366 
	C600.569946,469.739258 613.781189,472.422607 626.667480,476.153687 
	C645.693115,481.662354 663.453979,490.278046 679.339050,499.676422 
	C667.847412,503.356049 655.268066,506.375214 643.558716,511.415588 
	C631.728760,516.507812 620.761169,523.603210 609.040344,530.026917 
	C608.217957,522.495178 602.166626,520.309814 595.066467,522.364746 
	C592.181580,523.199768 588.612671,527.492981 588.382324,530.448608 
	C587.923828,536.333435 592.274902,540.177368 597.738647,542.341370 
	C576.962463,564.938721 570.744324,594.401855 573.898193,614.442505 
	C566.327698,611.186462 559.043762,607.396912 551.336792,604.928101 
	C543.975342,602.569885 536.159058,601.650879 528.577759,599.943542 
	C527.103577,599.611450 525.252991,598.925781 524.486145,597.789124 
	C515.972229,585.169556 511.265808,571.323059 509.825348,556.036865 
	C508.585571,542.880432 510.813934,530.449951 514.688965,517.711548 
z"/>
<path fill="#1F608F" opacity="1.000000" stroke="none" 
	d="
M479.382202,614.244080 
	C476.698059,616.465149 474.458191,618.687317 471.886017,620.414673 
	C470.972076,621.028320 468.993256,620.908813 467.935364,620.329773 
	C446.068298,608.360413 434.262115,589.325806 428.851929,565.459106 
	C426.569916,555.392029 425.515350,545.351318 426.055817,535.144043 
	C426.652557,523.874084 429.071686,512.922119 433.940369,502.702881 
	C434.923401,500.639587 437.507751,499.175079 439.609253,497.835083 
	C454.737335,488.188782 470.904480,480.698792 487.911133,475.026581 
	C504.013702,469.655975 520.521667,466.229889 537.468323,465.010834 
	C538.100769,464.965363 538.743958,465.069611 538.544434,465.058807 
	C532.493347,472.322540 525.911255,479.688171 519.941895,487.520782 
	C511.954590,498.001343 507.413788,510.273529 504.320709,522.876526 
	C503.156067,527.621948 501.202759,527.560791 497.836060,526.935425 
	C493.052734,526.046936 489.115204,528.074707 487.047516,532.079102 
	C485.001190,536.042114 485.945984,539.861145 488.478973,542.602783 
	C491.399017,545.763367 495.135834,548.893616 500.762573,545.316223 
	C501.813416,565.287964 506.883362,583.514587 516.990295,600.704041 
	C503.192627,602.164917 491.080994,607.130249 479.382202,614.244080 
z"/>
<path fill="#20669C" opacity="1.000000" stroke="none" 
	d="
M413.390167,666.749146 
	C384.695343,653.820801 369.368561,631.217896 362.794098,601.497192 
	C361.185608,594.225769 363.272125,588.374207 365.968628,582.261719 
	C373.980896,564.099365 383.965363,547.169189 397.788940,532.763428 
	C405.337067,524.897461 413.173462,517.308105 421.628845,508.844208 
	C419.935303,519.241211 417.982819,527.973816 417.258575,536.807190 
	C416.768066,542.789978 417.640656,548.970276 418.561676,554.960999 
	C419.669098,562.164551 421.594727,569.239746 422.852081,576.425537 
	C423.046112,577.534485 421.861328,579.344910 420.797241,580.132141 
	C416.762329,583.117310 414.786621,587.356445 416.257324,590.733887 
	C417.965698,594.657288 422.289856,596.600708 427.126434,595.967163 
	C428.470398,595.791199 430.692902,596.065796 431.230621,596.930664 
	C439.152527,609.671570 450.605896,618.381714 463.282532,625.816406 
	C464.034485,626.257385 464.700256,628.557617 464.305359,628.992126 
	C453.568756,640.804626 450.820007,655.393005 449.711609,670.822693 
	C437.438690,671.286194 425.320984,671.771118 413.390167,666.749146 
z"/>
<path fill="#22689B" opacity="1.000000" stroke="none" 
	d="
M448.570129,732.761230 
	C435.979767,738.354126 422.993652,738.710693 410.019897,737.900635 
	C395.103271,736.969116 380.769806,732.601013 369.772705,722.547119 
	C364.632477,717.847717 362.098724,709.421997 360.232025,702.206970 
	C356.781799,688.871399 354.043030,675.267395 352.282806,661.610901 
	C351.241241,653.529663 352.410980,645.116760 353.010345,636.883911 
	C353.600800,628.773071 354.726227,620.701172 356.097626,612.572144 
	C360.637054,635.024658 373.819275,651.274109 391.988983,664.542969 
	C391.288605,665.544189 390.562622,666.544678 389.875153,667.570984 
	C386.555145,672.526794 387.647888,676.631775 393.159973,679.954651 
	C396.952087,682.240540 402.295227,680.640320 404.289886,676.044678 
	C405.569275,673.096985 406.516968,672.946472 409.663422,673.692017 
	C417.867157,675.636047 426.262451,676.922180 434.648315,677.891296 
	C439.761963,678.482178 444.999603,678.000305 450.448181,678.000305 
	C453.436920,692.539185 459.083679,705.662598 472.233826,716.261902 
	C464.071564,721.974670 456.494507,727.277893 448.570129,732.761230 
z"/>
<path fill="#231F20" opacity="1.000000" stroke="none" 
	d="
M1441.288574,627.283447 
	C1445.395630,618.134644 1449.185425,609.257629 1453.220215,600.493469 
	C1453.740601,599.362915 1455.464233,598.267090 1456.746582,598.111755 
	C1459.661133,597.758484 1462.647949,598.000427 1465.788208,598.000427 
	C1465.788208,662.146118 1465.788208,725.884888 1465.788208,789.811768 
	C1463.634277,789.811768 1461.678711,789.811768 1459.323242,789.811768 
	C1459.323242,728.849854 1459.323242,667.777222 1459.323242,606.704529 
	C1459.020630,606.626099 1458.717896,606.547668 1458.415283,606.469238 
	C1430.455688,667.463806 1402.496216,728.458313 1374.404541,789.741150 
	C1370.352661,791.143127 1367.884399,789.516174 1365.926880,785.133423 
	C1352.925537,756.023132 1339.723633,727.002075 1326.490845,697.995850 
	C1318.535522,680.557373 1310.366333,663.216553 1302.368774,645.797119 
	C1296.359253,632.708069 1290.469971,619.563782 1283.899414,605.058044 
	C1283.899414,667.601807 1283.899414,728.642883 1283.899414,789.840942 
	C1281.571289,789.840942 1279.612305,789.840942 1277.326050,789.840942 
	C1277.326050,726.152954 1277.326050,662.409058 1277.326050,598.001587 
	C1280.397095,598.001587 1283.675781,597.791687 1286.899902,598.119202 
	C1287.981201,598.229065 1289.369873,599.505737 1289.863037,600.591919 
	C1299.381592,621.556335 1308.729126,642.598328 1318.238403,663.566956 
	C1324.226685,676.771606 1330.510498,689.842285 1336.505981,703.043701 
	C1347.489990,727.228638 1358.354858,751.467651 1369.286377,775.676392 
	C1369.881104,776.993225 1370.631592,778.239563 1371.632812,780.128479 
	C1394.884155,729.033630 1417.965698,678.311890 1441.288574,627.283447 
z"/>
<path fill="#2973A9" opacity="1.000000" stroke="none" 
	d="
M412.993500,773.999634 
	C398.107605,762.835144 385.268829,750.169617 376.116577,733.841370 
	C379.703552,735.886902 383.228180,738.052124 386.888641,739.956482 
	C400.472595,747.023499 414.867981,748.494141 429.853668,746.199646 
	C430.986572,746.026184 432.896332,747.153442 433.537415,748.221130 
	C435.807495,752.001404 439.070770,753.799377 443.161163,752.746704 
	C447.143127,751.722046 449.623169,749.079163 449.141907,744.307922 
	C449.003387,742.934631 450.147064,740.912231 451.330109,740.008667 
	C459.773590,733.560059 468.379395,727.323975 477.422729,720.659912 
	C482.284210,722.792786 487.973358,726.052063 494.095215,727.761719 
	C500.320709,729.500244 506.972595,729.711731 513.822327,730.644348 
	C515.056519,743.867798 511.079315,755.678162 503.188354,766.557495 
	C495.187286,777.588623 485.223328,785.928772 472.251678,790.238220 
	C466.268433,792.226074 460.082458,793.924988 453.856354,794.718445 
	C450.953094,795.088379 447.482727,793.454468 444.705566,791.932861 
	C434.157654,786.153625 423.787842,780.049133 412.993500,773.999634 
z"/>
<path fill="#231F20" opacity="1.000000" stroke="none" 
	d="
M1542.751221,768.251465 
	C1527.194092,753.335022 1518.767578,735.207031 1514.932861,714.543457 
	C1510.409424,690.167725 1513.500854,666.763245 1524.276733,644.688782 
	C1532.139404,628.582031 1544.325317,616.065796 1559.777344,606.517944 
	C1579.938721,594.060120 1602.072021,590.821472 1624.761841,593.262268 
	C1656.142090,596.637939 1680.601807,612.269226 1696.946289,639.695435 
	C1704.672974,652.661255 1708.535400,666.743774 1710.165527,681.801392 
	C1712.586792,704.166443 1709.274170,725.293823 1698.922852,745.171143 
	C1688.139526,765.878174 1671.248779,780.058838 1649.860596,788.938416 
	C1636.903687,794.317566 1623.189331,796.408020 1609.269653,795.906982 
	C1583.881470,794.992920 1561.303955,786.792725 1542.751221,768.251465 
M1665.024780,615.525085 
	C1664.176147,614.731018 1663.439209,613.747253 1662.461792,613.171753 
	C1650.969116,606.404236 1639.034424,600.605042 1625.428223,600.069580 
	C1614.942017,599.656921 1604.158447,598.521790 1593.976685,600.339233 
	C1571.406982,604.367859 1552.979248,616.216370 1538.988281,634.553772 
	C1527.593750,649.487915 1521.405029,666.603699 1520.229858,685.150085 
	C1519.601440,695.068054 1520.471924,705.285645 1522.186279,715.102600 
	C1525.274536,732.788086 1532.810547,748.681274 1545.352539,761.786804 
	C1559.128052,776.181458 1575.929932,784.720520 1595.676636,788.167297 
	C1610.319824,790.723206 1624.604370,790.012451 1638.657471,785.910828 
	C1668.366699,777.239746 1688.195068,757.621399 1698.474976,728.781616 
	C1704.882812,710.805176 1705.898438,692.104126 1702.037598,673.221252 
	C1697.178345,649.454956 1685.544312,630.097473 1665.024780,615.525085 
z"/>
<path fill="#231F20" opacity="1.000000" stroke="none" 
	d="
M754.002563,416.000000 
	C748.529419,416.000000 743.555420,416.000000 738.291748,416.000000 
	C738.291748,352.055786 738.291748,288.350739 738.291748,224.238007 
	C739.580139,224.164047 741.008911,224.011826 742.437744,224.010651 
	C761.591492,223.994781 780.764648,223.455872 799.894043,224.138977 
	C823.323120,224.975632 845.922607,229.778793 865.231079,244.114471 
	C879.430969,254.657196 888.694214,268.839905 894.125671,285.777496 
	C898.667175,299.939453 899.772949,314.411743 898.864380,328.974518 
	C897.588318,349.429291 891.573669,368.242310 877.568420,384.024811 
	C863.335632,400.063629 845.332642,408.545441 824.738464,413.154541 
	C807.875244,416.928558 790.929993,415.638489 773.988159,415.978760 
	C767.495178,416.109161 760.997437,416.000000 754.002563,416.000000 
M765.500183,410.000000 
	C787.180176,409.890289 808.947266,411.326477 830.190857,405.038849 
	C853.229248,398.219971 871.802002,385.793335 882.982300,363.911346 
	C890.512268,349.173737 892.430054,333.329712 892.064392,316.973236 
	C891.703186,300.812012 888.667542,285.543579 880.188293,271.483337 
	C873.045532,259.639191 863.755188,250.427322 851.524231,243.770660 
	C833.478455,233.949265 813.984863,230.702011 793.906616,230.088821 
	C779.097473,229.636551 764.263428,229.993317 749.440491,230.010773 
	C748.011414,230.012451 746.582458,230.163956 745.291870,230.237976 
	C745.291870,290.349487 745.291870,350.055298 745.291870,410.000000 
	C751.888000,410.000000 758.194214,410.000000 765.500183,410.000000 
z"/>
<path fill="#31719D" opacity="1.000000" stroke="none" 
	d="
M512.794922,802.999634 
	C505.811371,803.000427 499.258026,803.403198 492.773346,802.907288 
	C482.892151,802.151733 473.058533,800.774231 463.005219,798.612976 
	C482.322754,796.615479 496.950470,787.200012 508.447693,772.380127 
	C515.594116,775.193115 520.005066,774.407043 522.334778,769.905212 
	C524.661377,765.409424 522.867493,760.955933 517.964905,757.658936 
	C518.668213,748.925476 519.234924,740.644226 520.093262,732.393311 
	C520.244629,730.937805 521.349609,728.685547 522.462463,728.366943 
	C532.057739,725.619690 540.107605,720.591858 546.565308,712.763550 
	C555.373901,718.927185 560.881592,727.259338 562.789368,737.283752 
	C565.101807,749.434570 565.708618,761.911682 559.892090,773.435425 
	C556.614868,779.928345 553.347900,787.130798 548.075012,791.708069 
	C543.103943,796.023376 535.630432,797.693237 529.029358,799.817017 
	C523.955444,801.449341 518.526794,801.979065 512.794922,802.999634 
z"/>
<path fill="#231F20" opacity="1.000000" stroke="none" 
	d="
M1759.000000,785.838013 
	C1759.000000,723.063232 1759.000000,660.771057 1759.000000,598.000000 
	C1762.608398,598.000000 1765.891602,598.000000 1769.174683,598.000000 
	C1785.840332,598.000000 1802.526245,597.495361 1819.165283,598.160950 
	C1832.281982,598.685608 1845.221924,600.761292 1856.477539,608.772766 
	C1864.456909,614.452271 1869.326904,622.142395 1871.538818,631.271240 
	C1873.904541,641.034607 1874.055542,651.015564 1871.067139,660.867981 
	C1866.748901,675.104065 1856.695190,683.945557 1843.367432,688.795044 
	C1835.440063,691.679565 1826.772217,692.528992 1818.454102,694.289734 
	C1837.251587,725.605103 1856.463989,757.611572 1875.715820,789.683838 
	C1870.639404,790.634338 1867.583862,789.680847 1864.617432,784.591614 
	C1847.314331,754.907288 1829.387573,725.586060 1811.588257,696.192566 
	C1810.980225,695.188416 1809.494873,694.104614 1808.407959,694.093628 
	C1794.442871,693.952637 1780.475830,694.000549 1766.086426,694.000549 
	C1766.086426,726.047241 1766.086426,757.786438 1766.086426,789.761230 
	C1763.737671,789.761230 1761.798584,789.761230 1759.355713,789.761230 
	C1759.252441,788.762451 1759.126221,787.541504 1759.000000,785.838013 
M1766.000000,677.477783 
	C1766.000000,680.912048 1766.000000,684.346375 1766.000000,687.999146 
	C1783.860596,687.999146 1801.166992,688.508911 1818.420166,687.771545 
	C1826.351929,687.432617 1834.413574,685.342224 1841.990356,682.784180 
	C1850.117554,680.040222 1856.484253,674.527100 1861.113892,666.913879 
	C1865.983521,658.905823 1866.294678,650.317017 1866.004517,641.465576 
	C1865.565430,628.058105 1858.939819,618.488037 1847.565308,611.970947 
	C1837.462280,606.182373 1826.314575,604.271667 1814.885010,604.055603 
	C1802.074707,603.813538 1789.256104,604.000000 1776.441162,604.000000 
	C1773.015991,604.000000 1769.590820,604.000000 1766.000000,604.000000 
	C1766.000000,628.583435 1766.000000,652.532898 1766.000000,677.477783 
z"/>
<path fill="#231F20" opacity="1.000000" stroke="none" 
	d="
M1116.361816,789.548706 
	C1116.060791,725.689575 1116.060791,662.198853 1116.060791,598.245544 
	C1117.507202,598.162781 1118.929443,598.011780 1120.351562,598.010559 
	C1139.017456,597.994751 1157.697998,597.553223 1176.343994,598.162231 
	C1188.138306,598.547424 1199.793335,600.525146 1210.393311,606.709717 
	C1220.153198,612.404114 1226.010498,620.925232 1228.597656,631.438904 
	C1230.996338,641.186279 1231.080444,651.225159 1228.030396,661.039795 
	C1223.632446,675.192200 1213.610107,684.063843 1200.196777,688.826477 
	C1192.345337,691.614319 1183.839233,692.558899 1175.505249,694.359131 
	C1194.214478,725.539795 1213.479370,757.646484 1232.629517,789.561951 
	C1226.153320,791.932190 1223.447754,787.943542 1220.660645,783.248474 
	C1203.369995,754.120789 1185.915161,725.090515 1168.522339,696.023438 
	C1168.185669,695.460876 1167.938354,694.844910 1167.583252,694.118652 
	C1153.035156,694.118652 1138.384644,694.118652 1123.137207,694.118652 
	C1123.137207,725.944275 1123.137207,757.807556 1123.137207,789.917053 
	C1120.583740,789.917053 1118.623291,789.917053 1116.361816,789.548706 
M1181.504761,687.000000 
	C1190.503906,686.319458 1199.091919,683.959106 1206.466309,678.795044 
	C1210.659058,675.859070 1214.441772,671.969177 1217.475708,667.825378 
	C1223.387085,659.751282 1223.360718,650.173218 1223.026001,640.624573 
	C1222.599976,628.476074 1216.369141,619.469727 1206.799683,613.143494 
	C1196.901245,606.599670 1185.293335,604.342102 1173.523926,604.075684 
	C1159.381348,603.755554 1145.226196,604.000000 1131.076416,604.000000 
	C1128.468628,604.000000 1125.860840,604.000000 1123.250732,604.000000 
	C1123.250732,632.255249 1123.250732,659.967163 1123.250732,688.000000 
	C1135.451050,688.000000 1147.404419,688.115662 1159.354004,687.956299 
	C1166.435303,687.861877 1173.510742,687.333618 1181.504761,687.000000 
z"/>
<path fill="#231F20" opacity="1.000000" stroke="none" 
	d="
M1222.999268,412.998718 
	C1222.002319,414.313782 1221.007690,415.890472 1220.007690,415.893768 
	C1182.207642,416.019073 1144.406860,415.999664 1106.303345,415.999664 
	C1106.303345,352.063721 1106.303345,288.343445 1106.303345,224.311371 
	C1143.592285,224.311371 1180.985718,224.311371 1218.783325,224.311371 
	C1218.863037,225.932434 1218.948486,227.670380 1219.053955,229.817429 
	C1183.761353,229.817429 1148.684570,229.817429 1113.304688,229.817429 
	C1113.304688,257.940643 1113.304688,285.669769 1113.304688,313.820557 
	C1146.282593,313.820557 1179.346436,313.820557 1212.773682,313.820557 
	C1212.869873,315.952423 1212.948242,317.689972 1213.045410,319.842529 
	C1179.733032,319.842529 1146.656616,319.842529 1113.291016,319.842529 
	C1113.291016,349.968018 1113.291016,379.696503 1113.291016,410.000000 
	C1115.006714,410.000000 1116.773071,410.000000 1118.539551,410.000000 
	C1151.861694,410.000000 1185.183716,409.978302 1218.505737,410.063141 
	C1220.200195,410.067474 1223.290527,408.502777 1222.999268,412.998718 
z"/>
<path fill="#231F20" opacity="1.000000" stroke="none" 
	d="
M1057.694092,229.967285 
	C1022.611084,229.995010 988.004700,229.995010 953.199951,229.995010 
	C953.199951,258.033234 953.199951,285.644135 953.199951,313.839783 
	C986.261414,313.839783 1019.452393,313.839783 1052.818726,313.839783 
	C1052.818726,316.037262 1052.818726,317.659912 1052.818726,319.690643 
	C1019.854736,319.690643 986.791321,319.690643 953.364319,319.690643 
	C953.364319,349.819305 953.364319,379.548584 953.364319,409.860535 
	C989.618530,409.860535 1026.142212,409.860535 1062.830200,409.860535 
	C1062.830200,412.060760 1062.830200,413.686462 1062.830200,415.657684 
	C1024.179565,415.657684 985.446106,415.657684 946.356079,415.657684 
	C946.356079,352.170441 946.356079,288.450378 946.356079,224.364990 
	C983.610840,224.364990 1021.129700,224.364990 1059.280518,224.364990 
	C1058.888916,226.331467 1058.529663,228.135513 1057.694092,229.967285 
z"/>
<path fill="#231F20" opacity="1.000000" stroke="none" 
	d="
M981.000000,735.000000 
	C969.172241,735.000000 957.842712,734.902405 946.518982,735.117126 
	C945.015991,735.145569 942.733948,736.411377 942.178528,737.695068 
	C934.967407,754.361755 928.155090,771.203186 920.750366,787.780762 
	C919.980713,789.503662 916.064148,789.820923 913.607666,790.790344 
	C913.295959,790.330688 912.984192,789.871033 912.672424,789.411316 
	C915.034851,783.831116 917.348999,778.229858 919.768005,772.674316 
	C932.608826,743.182861 945.553284,713.736267 958.311279,684.209167 
	C970.362061,656.319031 982.180237,628.328308 994.318909,600.476929 
	C994.885620,599.176758 997.586548,598.158020 999.284058,598.171814 
	C1001.191528,598.187195 1004.255737,599.031555 1004.817200,600.360229 
	C1015.825562,626.413940 1026.461426,652.624512 1037.340088,678.733704 
	C1049.580566,708.111633 1062.000854,737.414612 1074.309814,766.764160 
	C1077.480103,774.323486 1080.525391,781.935303 1083.632812,789.534729 
	C1077.971191,791.315613 1075.688721,789.148743 1073.642944,783.622620 
	C1067.845215,767.962036 1061.135864,752.634766 1054.532349,737.285156 
	C1054.018188,736.089844 1051.538452,735.105347 1049.965576,735.095703 
	C1027.144409,734.956116 1004.322083,735.000000 981.000000,735.000000 
M1018.560425,649.048157 
	C1012.158081,633.832642 1005.755798,618.617126 999.422485,603.565674 
	C981.599182,645.415527 963.690918,687.464844 945.662292,729.796875 
	C981.430542,729.796875 1016.460266,729.796875 1051.713623,729.796875 
	C1044.642212,712.788025 1037.623413,696.053101 1030.729004,679.267212 
	C1026.703125,669.464905 1022.875854,659.580994 1018.560425,649.048157 
z"/>
<path fill="#231F20" opacity="1.000000" stroke="none" 
	d="
M1274.053955,224.000000 
	C1291.036499,224.000000 1307.541748,223.580765 1324.014404,224.132584 
	C1337.204346,224.574463 1349.868774,227.524994 1361.023926,235.416702 
	C1371.125732,242.563171 1376.618652,252.519272 1377.738892,264.325806 
	C1378.467651,272.007843 1377.631348,280.145844 1375.856323,287.693939 
	C1372.157593,303.421692 1360.848267,312.504852 1346.282959,317.993927 
	C1338.596558,320.890656 1330.669556,322.190460 1322.388428,322.069855 
	C1306.099609,321.832611 1289.804810,322.000000 1273.103760,322.000000 
	C1273.103760,353.365875 1273.103760,384.426819 1273.103760,415.742493 
	C1270.640015,415.742493 1268.573853,415.742493 1266.248901,415.742493 
	C1266.248901,351.993835 1266.248901,288.275177 1266.248901,224.000000 
	C1268.691895,224.000000 1271.127197,224.000000 1274.053955,224.000000 
M1286.508057,230.000000 
	C1282.077759,230.000000 1277.647461,230.000000 1273.273438,230.000000 
	C1273.273438,258.966675 1273.273438,287.345764 1273.273438,314.999451 
	C1293.911377,314.999451 1314.288574,315.499207 1334.622192,314.775360 
	C1343.913086,314.444611 1352.498901,310.107513 1359.097778,303.266602 
	C1365.979370,296.132446 1370.160645,287.670380 1371.154663,277.440552 
	C1372.093872,267.775848 1371.103516,258.705536 1365.920288,250.540207 
	C1356.562744,235.799133 1341.792725,230.909760 1325.455078,230.121521 
	C1312.832397,229.512512 1300.156738,230.000000 1286.508057,230.000000 
z"/>
<path fill="#3780AC" opacity="1.000000" stroke="none" 
	d="
M579.033081,731.382324 
	C576.000122,724.352783 571.986145,723.114502 565.155334,726.191162 
	C560.820862,720.663940 556.554260,715.316956 552.424683,709.866089 
	C551.728943,708.947754 551.060669,707.421997 551.335938,706.446838 
	C553.650757,698.246765 556.188782,690.109680 558.930847,681.058228 
	C570.949585,679.714905 582.325073,684.677246 592.504272,693.080017 
	C595.060730,695.190369 597.133667,697.876038 599.603821,700.103149 
	C606.644531,706.451294 604.310303,714.133484 602.672363,721.616089 
	C598.379211,741.228516 588.721436,758.086914 575.451355,772.915771 
	C572.406799,776.317932 568.438538,778.893677 564.022339,782.578186 
	C566.036194,775.577698 568.177063,770.104126 569.085510,764.433044 
	C570.024109,758.573914 569.897461,752.524536 569.968994,746.555176 
	C570.000671,743.917236 570.018677,741.828552 573.178345,740.933350 
	C577.672546,739.660034 579.472961,736.357605 579.033081,731.382324 
z"/>
<path fill="#548EB9" opacity="1.000000" stroke="none" 
	d="
M566.844727,676.000122 
	C562.884033,676.000122 559.396667,676.000122 555.621277,676.000122 
	C552.154846,665.992493 545.915466,658.319702 536.136108,653.501343 
	C543.864746,644.745056 553.633850,640.443665 564.910583,638.982971 
	C578.166565,637.265991 587.739441,641.106812 593.997498,654.123230 
	C600.628845,667.916138 604.671204,681.929626 605.093445,696.685974 
	C598.433350,691.029236 591.812805,685.406067 585.764343,680.268799 
	C585.764343,677.447876 586.385864,674.136108 585.482971,671.311707 
	C585.075989,670.038574 580.941223,668.539124 579.707825,669.247864 
	C577.255615,670.657227 575.641357,673.524841 573.149658,676.403503 
	C572.119019,676.332214 569.718506,676.166138 566.844727,676.000122 
z"/>
<path fill="#5EB1D4" opacity="1.000000" stroke="none" 
	d="
M470.010132,644.687622 
	C472.825958,651.726501 475.355560,658.544617 477.871887,665.327026 
	C477.104919,666.944397 475.816650,669.062134 475.209991,671.359863 
	C475.057709,671.936707 477.204865,673.933777 478.100708,673.814697 
	C480.357880,673.514709 482.504120,672.380249 484.694855,671.580200 
	C484.591370,671.191284 484.487915,670.802307 484.384430,670.413330 
	C485.376556,670.975525 486.319397,671.661621 487.369049,672.079041 
	C492.714203,674.204529 496.199280,677.334229 498.214233,683.374023 
	C499.802155,688.133667 504.623291,691.814636 508.030548,696.001953 
	C499.258850,703.721008 479.524750,703.035034 472.205292,695.977661 
	C467.510040,691.450378 464.554993,683.797485 463.491669,677.120239 
	C461.698639,665.860596 462.182190,654.294250 470.010132,644.687622 
z"/>
<path fill="#4492C5" opacity="1.000000" stroke="none" 
	d="
M517.701172,625.822266 
	C521.044678,622.125610 524.107056,618.672974 527.242798,615.288208 
	C527.764160,614.725403 528.642944,614.054077 529.293335,614.114441 
	C547.032837,615.758423 563.308838,620.991516 577.466370,634.617188 
	C567.767395,630.885925 559.225159,632.099854 550.323242,635.341614 
	C550.322449,630.575684 549.620483,626.092224 544.179321,626.439148 
	C542.067017,626.573792 538.315002,629.490784 538.462463,630.779663 
	C538.794617,633.682495 541.095032,636.360107 542.814087,639.535034 
	C539.582458,642.917847 535.487549,647.204285 531.410278,651.472290 
	C525.768860,651.472290 519.935852,651.472290 513.357727,651.472290 
	C509.893494,642.597168 513.303955,634.295776 517.701172,625.822266 
z"/>
<path fill="#56A7CB" opacity="1.000000" stroke="none" 
	d="
M485.239075,662.733582 
	C478.749695,654.630859 477.346649,645.513794 478.043335,635.883057 
	C478.132050,634.656372 478.469391,633.144043 479.266052,632.318115 
	C489.627228,621.575134 502.315063,615.880493 517.414734,614.765259 
	C513.730225,620.994812 510.273529,626.839233 507.387604,631.718567 
	C503.935944,632.661011 500.611237,632.888123 498.232300,634.505859 
	C497.045074,635.313416 496.596069,639.440125 497.572876,640.687805 
	C499.155426,642.709167 502.187256,643.595886 504.607208,644.961670 
	C504.941742,644.591370 505.276276,644.221130 505.610840,643.850830 
	C506.362915,647.148560 507.241821,650.426147 507.770874,653.759277 
	C507.891083,654.516724 506.858765,655.510803 506.255829,656.320679 
	C502.615601,661.210144 498.945923,666.077698 494.755920,671.658752 
	C492.269196,669.333130 488.882721,666.166016 485.239075,662.733582 
z"/>
<path fill="#75C0E0" opacity="1.000000" stroke="none" 
	d="
M481.066345,704.917603 
	C486.767090,704.974792 492.469299,704.980957 498.166901,705.146545 
	C498.978699,705.170105 500.215118,705.777771 500.492035,706.436096 
	C501.842255,709.646301 504.071289,711.112000 507.114075,709.217834 
	C510.502625,707.108521 509.239288,704.164246 507.463440,701.473511 
	C509.618195,698.390747 511.788330,696.198914 516.248230,696.784912 
	C518.927429,697.136963 521.878906,695.416687 525.863159,694.305664 
	C525.608032,696.953613 525.698792,699.442078 525.093811,701.747986 
	C520.276062,720.111633 517.275330,717.850281 502.160950,716.652954 
	C494.195892,716.022034 486.884979,711.830872 480.865601,705.645142 
	C480.852539,705.189026 481.066345,704.917603 481.066345,704.917603 
z"/>
<path fill="#7FCBE8" opacity="1.000000" stroke="none" 
	d="
M529.947998,712.013733 
	C527.728882,713.075256 525.851501,714.021667 523.136841,715.390137 
	C525.539612,710.515808 527.521301,706.495667 529.557922,702.364136 
	C532.754700,703.213013 536.299744,703.961731 536.940369,699.449158 
	C537.799500,693.397339 532.635742,695.600525 529.301331,694.640137 
	C529.206848,693.340942 528.857056,691.866821 529.045593,690.465210 
	C529.513123,686.989868 528.098511,682.268494 534.040894,682.002991 
	C539.380676,681.764404 543.786682,685.606567 543.975647,690.886597 
	C544.249390,698.534058 539.879333,703.858276 534.650391,708.647339 
	C533.320007,709.865662 531.749756,710.821899 529.947998,712.013733 
z"/>
<path fill="#75C0E0" opacity="1.000000" stroke="none" 
	d="
M480.749023,705.327393 
	C480.289795,705.099060 479.934082,704.732300 479.578400,704.365540 
	C479.983734,704.391296 480.389099,704.417053 480.930389,704.680176 
	C481.066345,704.917603 480.852539,705.189026 480.749023,705.327393 
z"/>
<path fill="#2973A9" opacity="1.000000" stroke="none" 
	d="
M374.434692,733.681519 
	C374.400787,733.179443 374.653839,732.886230 374.906952,732.593018 
	C374.845184,733.025513 374.783417,733.457947 374.434692,733.681519 
z"/>
<path fill="#3780AC" opacity="1.000000" stroke="none" 
	d="
M562.467285,782.317993 
	C562.745239,782.615662 562.728821,783.104736 562.712402,783.593811 
	C562.532593,783.232361 562.352722,782.870911 562.467285,782.317993 
z"/>
<path fill="#1C3966" opacity="1.000000" stroke="none" 
	d="
M97.462128,882.445190 
	C96.993515,882.130066 96.740120,881.653198 96.486725,881.176331 
	C96.944351,881.239197 97.401970,881.302063 97.965759,881.640991 
	C97.940384,882.039246 97.808861,882.161316 97.462128,882.445190 
z"/>
<path fill="#FFFFFF" opacity="1.000000" stroke="none" 
	d="
M1665.324463,615.741638 
	C1685.544312,630.097473 1697.178345,649.454956 1702.037598,673.221252 
	C1705.898438,692.104126 1704.882812,710.805176 1698.474976,728.781616 
	C1688.195068,757.621399 1668.366699,777.239746 1638.657471,785.910828 
	C1624.604370,790.012451 1610.319824,790.723206 1595.676636,788.167297 
	C1575.929932,784.720520 1559.128052,776.181458 1545.352539,761.786804 
	C1532.810547,748.681274 1525.274536,732.788086 1522.186279,715.102600 
	C1520.471924,705.285645 1519.601440,695.068054 1520.229858,685.150085 
	C1521.405029,666.603699 1527.593750,649.487915 1538.988281,634.553772 
	C1552.979248,616.216370 1571.406982,604.367859 1593.976685,600.339233 
	C1604.158447,598.521790 1614.942017,599.656921 1625.428223,600.069580 
	C1639.034424,600.605042 1650.969116,606.404236 1662.461792,613.171753 
	C1663.439209,613.747253 1664.176147,614.731018 1665.324463,615.741638 
z"/>
<path fill="#FFFFFF" opacity="1.000000" stroke="none" 
	d="
M765.000244,410.000000 
	C758.194214,410.000000 751.888000,410.000000 745.291870,410.000000 
	C745.291870,350.055298 745.291870,290.349487 745.291870,230.237976 
	C746.582458,230.163956 748.011414,230.012451 749.440491,230.010773 
	C764.263428,229.993317 779.097473,229.636551 793.906616,230.088821 
	C813.984863,230.702011 833.478455,233.949265 851.524231,243.770660 
	C863.755188,250.427322 873.045532,259.639191 880.188293,271.483337 
	C888.667542,285.543579 891.703186,300.812012 892.064392,316.973236 
	C892.430054,333.329712 890.512268,349.173737 882.982300,363.911346 
	C871.802002,385.793335 853.229248,398.219971 830.190857,405.038849 
	C808.947266,411.326477 787.180176,409.890289 765.000244,410.000000 
z"/>
<path fill="#FFFFFF" opacity="1.000000" stroke="none" 
	d="
M1766.000000,676.980103 
	C1766.000000,652.532898 1766.000000,628.583435 1766.000000,604.000000 
	C1769.590820,604.000000 1773.015991,604.000000 1776.441162,604.000000 
	C1789.256104,604.000000 1802.074707,603.813538 1814.885010,604.055603 
	C1826.314575,604.271667 1837.462280,606.182373 1847.565308,611.970947 
	C1858.939819,618.488037 1865.565430,628.058105 1866.004517,641.465576 
	C1866.294678,650.317017 1865.983521,658.905823 1861.113892,666.913879 
	C1856.484253,674.527100 1850.117554,680.040222 1841.990356,682.784180 
	C1834.413574,685.342224 1826.351929,687.432617 1818.420166,687.771545 
	C1801.166992,688.508911 1783.860596,687.999146 1766.000000,687.999146 
	C1766.000000,684.346375 1766.000000,680.912048 1766.000000,676.980103 
z"/>
<path fill="#FFFFFF" opacity="1.000000" stroke="none" 
	d="
M1181.046875,687.000183 
	C1173.510742,687.333618 1166.435303,687.861877 1159.354004,687.956299 
	C1147.404419,688.115662 1135.451050,688.000000 1123.250732,688.000000 
	C1123.250732,659.967163 1123.250732,632.255249 1123.250732,604.000000 
	C1125.860840,604.000000 1128.468628,604.000000 1131.076416,604.000000 
	C1145.226196,604.000000 1159.381348,603.755554 1173.523926,604.075684 
	C1185.293335,604.342102 1196.901245,606.599670 1206.799683,613.143494 
	C1216.369141,619.469727 1222.599976,628.476074 1223.026001,640.624573 
	C1223.360718,650.173218 1223.387085,659.751282 1217.475708,667.825378 
	C1214.441772,671.969177 1210.659058,675.859070 1206.466309,678.795044 
	C1199.091919,683.959106 1190.503906,686.319458 1181.046875,687.000183 
z"/>
<path fill="#FFFFFF" opacity="1.000000" stroke="none" 
	d="
M1018.759766,649.390991 
	C1022.875854,659.580994 1026.703125,669.464905 1030.729004,679.267212 
	C1037.623413,696.053101 1044.642212,712.788025 1051.713623,729.796875 
	C1016.460266,729.796875 981.430542,729.796875 945.662292,729.796875 
	C963.690918,687.464844 981.599182,645.415527 999.422485,603.565674 
	C1005.755798,618.617126 1012.158081,633.832642 1018.759766,649.390991 
z"/>
<path fill="#FFFFFF" opacity="1.000000" stroke="none" 
	d="
M1287.006348,230.000000 
	C1300.156738,230.000000 1312.832397,229.512512 1325.455078,230.121521 
	C1341.792725,230.909760 1356.562744,235.799133 1365.920288,250.540207 
	C1371.103516,258.705536 1372.093872,267.775848 1371.154663,277.440552 
	C1370.160645,287.670380 1365.979370,296.132446 1359.097778,303.266602 
	C1352.498901,310.107513 1343.913086,314.444611 1334.622192,314.775360 
	C1314.288574,315.499207 1293.911377,314.999451 1273.273438,314.999451 
	C1273.273438,287.345764 1273.273438,258.966675 1273.273438,230.000000 
	C1277.647461,230.000000 1282.077759,230.000000 1287.006348,230.000000 
z"/>
</svg>